<?xml version="1.0" ?><svg width="45px" height="30px" data-name="Layer 2" id="Layer_2" viewBox="0 0 250 250" xmlns="http://www.w3.org/2000/svg"><title/><path d="M97.5,131.46a4,4,0,0,0-3.45,2c-.72,1.23-17.62,30.29-17.62,54.39,0,31.31,13.2,36,21.07,36s21.07-4.68,21.07-36c0-24.1-16.9-53.16-17.62-54.39A4,4,0,0,0,97.5,131.46Zm0,84.35c-11.37,0-13.07-17.53-13.07-28,0-15.54,8.23-34.22,13.07-43.87,4.84,9.64,13.07,28.31,13.07,43.87C110.57,198.28,108.87,215.81,97.5,215.81Z" fill="#D5B891"/><path d="M158.81,112a14.68,14.68,0,0,0-2-27.31V57.73a18,18,0,0,1,4.14-11.29,21.09,21.09,0,0,0-25.78-32.22c-9,4.51-13.15,14.63-10.13,24.63a5.88,5.88,0,0,1-.49,4.56L123,46A4,4,0,0,0,130,50l1.5-2.62a13.91,13.91,0,0,0,1.2-10.83c-1.87-6.21.61-12.44,6.05-15.16a13.26,13.26,0,0,1,16.69,4.31,13.06,13.06,0,0,1-.68,15.69,26,26,0,0,0-5.95,16.34V84.5A14.67,14.67,0,0,0,146.19,112c-5,8-14.88,25.06-21.19,44-.26-.79-.53-1.58-.81-2.36l-.84-2.34c-.29-.78-.58-1.55-.88-2.32-.59-1.53-1.2-3.05-1.82-4.54-.31-.75-.63-1.49-.94-2.22q-1-2.2-1.93-4.32c-2.59-5.65-5.27-10.82-7.71-15.23l-.91-1.62c-1.34-2.38-2.59-4.51-3.69-6.34l-.72-1.18c-.33-.55-.64-1-.94-1.53a14.68,14.68,0,0,0-2-27.31V57.73a18,18,0,0,1,4.14-11.29A21.09,21.09,0,0,0,80.14,14.22C71.16,18.73,67,28.85,70,38.85a5.88,5.88,0,0,1-.49,4.56L68,46A4,4,0,0,0,75,50l1.5-2.62a13.91,13.91,0,0,0,1.2-10.83c-1.87-6.21.61-12.44,6-15.16a13.26,13.26,0,0,1,16.69,4.31,13.06,13.06,0,0,1-.68,15.69,26,26,0,0,0-6,16.34V84.5A14.67,14.67,0,0,0,91.19,112c-7.62,12.21-26.92,46-26.92,74.86C64.27,233,87.51,238,97.5,238a30.16,30.16,0,0,0,3.71-.23c.39,0,.78-.1,1.19-.17l.37-.06.53-.1,1-.21a28.15,28.15,0,0,0,6.75-2.48c.46-.24.91-.49,1.37-.77s.92-.56,1.39-.88l.54-.37q.78-.57,1.56-1.2c.67-.55,1.32-1.15,2-1.8l.18-.18c.3-.3.6-.62.9-.95a2.85,2.85,0,0,0,.23-.26l.64-.74h0c.21-.25.41-.51.62-.77s.42-.54.62-.82l0-.06.56-.8a40.12,40.12,0,0,0,3.33-5.92c7.53,16.43,20.64,18.78,27.5,18.78,10,0,33.23-5,33.23-51.19C185.73,158,166.43,124.17,158.81,112Zm-10-18.82V98a4,4,0,0,0,4,4h0a4,4,0,0,0,4-4V93.55a6.7,6.7,0,1,1-8-.41Zm-55,0V98a4,4,0,0,0,4,4h0a4,4,0,0,0,4-4V93.55a6.7,6.7,0,1,1-8-.41Zm26.46,115.75c-.12.46-.25.91-.38,1.35s-.28.92-.43,1.37-.25.75-.38,1.11a.88.88,0,0,0-.05.15,38.52,38.52,0,0,1-2.38,5.29l-.21.38c-.19.33-.38.66-.58,1v0c-.2.32-.4.64-.62.94s-.44.65-.67,1-.43.56-.65.83a21.2,21.2,0,0,1-5.42,4.82c-.29.18-.58.34-.87.5l-.74.38c-.32.16-.64.3-1,.44l-.64.25-.48.18-.79.26-.31.09-.76.2-1.07.23c-.31.06-.62.11-.94.15l-.19,0-1,.11h0l-.95.07q-.63,0-1.26,0c-16.27,0-25.23-15.34-25.23-43.19,0-25.9,17.72-57.55,25.23-69.81.57.92,1.19,2,1.86,3.09l.5.84,1.64,2.85c.37.64.74,1.31,1.12,2l1.23,2.24,1.64,3.08c.28.53.56,1.07.83,1.61s.57,1.1.85,1.66a.25.25,0,0,0,0,.07c.55,1.1,1.1,2.22,1.65,3.37.29.58.57,1.18.85,1.78,0,.09.08.18.13.27q1.05,2.23,2.08,4.57l.51,1.18c.47,1.09.94,2.21,1.4,3.34.8,1.94,1.57,3.92,2.29,5.92.21.57.41,1.13.61,1.7.29.83.58,1.67.86,2.51.2.62.4,1.24.59,1.86.37,1.15.72,2.31,1,3.48.1.33.19.67.28,1,.22.77.42,1.55.61,2.32q.44,1.72.81,3.45h0a80.3,80.3,0,0,0-1.65,15.62A101.66,101.66,0,0,0,120.92,206h0C120.71,207,120.48,208,120.23,208.89ZM152.5,230c-12,0-20-8.37-23.42-24a91.28,91.28,0,0,1-1.81-19.23,74.86,74.86,0,0,1,1.81-15.62h0c4.71-21.89,17.37-44.31,23.42-54.18,7.52,12.25,25.23,43.88,25.23,69.81C177.73,214.67,168.77,230,152.5,230Z" fill="#D5B891"/><path d="M156,133.43a4,4,0,0,0-6.9,0c-.72,1.23-17.62,30.29-17.62,54.39,0,31.31,13.2,36,21.07,36s21.07-4.68,21.07-36C173.57,163.72,156.67,134.66,156,133.43Zm-3.45,82.38c-11.37,0-13.07-17.53-13.07-28,0-15.54,8.23-34.22,13.07-43.87,4.84,9.64,13.07,28.31,13.07,43.87C165.57,198.28,163.87,215.81,152.5,215.81Z" fill="#D5B891"/></svg>
