<svg width="250" height="250" xmlns="http://www.w3.org/2000/svg">
 <title/>

 <g>
  <title>background</title>
  <rect fill="#019053" id="canvas_background" height="252" width="252" y="-1" x="-1"/>
 </g>
 <g>
  <title>Layer 1</title>
  <path id="svg_1" d="m97.5,131.46a4,4 0 0 0 -3.45,2c-0.72,1.23 -17.62,30.29 -17.62,54.39c0,31.31 13.2,36 21.07,36s21.07,-4.68 21.07,-36c0,-24.1 -16.9,-53.16 -17.62,-54.39a4,4 0 0 0 -3.45,-2zm0,84.35c-11.37,0 -13.07,-17.53 -13.07,-28c0,-15.54 8.23,-34.22 13.07,-43.87c4.84,9.64 13.07,28.31 13.07,43.87c0,10.47 -1.7,28 -13.07,28z"/>
  <path id="svg_2" d="m158.81,112a14.68,14.68 0 0 0 -2,-27.31l0,-26.96a18,18 0 0 1 4.14,-11.29a21.09,21.09 0 0 0 -25.78,-32.22c-9,4.51 -13.15,14.63 -10.13,24.63a5.88,5.88 0 0 1 -0.49,4.56l-1.55,2.59a4,4 0 0 0 7,4l1.5,-2.62a13.91,13.91 0 0 0 1.2,-10.83c-1.87,-6.21 0.61,-12.44 6.05,-15.16a13.26,13.26 0 0 1 16.69,4.31a13.06,13.06 0 0 1 -0.68,15.69a26,26 0 0 0 -5.95,16.34l0,26.77a14.67,14.67 0 0 0 -2.62,27.5c-5,8 -14.88,25.06 -21.19,44c-0.26,-0.79 -0.53,-1.58 -0.81,-2.36l-0.84,-2.34c-0.29,-0.78 -0.58,-1.55 -0.88,-2.32c-0.59,-1.53 -1.2,-3.05 -1.82,-4.54c-0.31,-0.75 -0.63,-1.49 -0.94,-2.22q-1,-2.2 -1.93,-4.32c-2.59,-5.65 -5.27,-10.82 -7.71,-15.23l-0.91,-1.62c-1.34,-2.38 -2.59,-4.51 -3.69,-6.34l-0.72,-1.18c-0.33,-0.55 -0.64,-1 -0.94,-1.53a14.68,14.68 0 0 0 -2,-27.31l0,-26.96a18,18 0 0 1 4.14,-11.29a21.09,21.09 0 0 0 -25.81,-32.22c-8.98,4.51 -13.14,14.63 -10.14,24.63a5.88,5.88 0 0 1 -0.49,4.56l-1.51,2.59a4,4 0 0 0 7,4l1.5,-2.62a13.91,13.91 0 0 0 1.2,-10.83c-1.87,-6.21 0.61,-12.44 6,-15.16a13.26,13.26 0 0 1 16.69,4.31a13.06,13.06 0 0 1 -0.68,15.69a26,26 0 0 0 -6,16.34l0,26.77a14.67,14.67 0 0 0 -2.52,27.5c-7.62,12.21 -26.92,46 -26.92,74.86c0,46.14 23.24,51.14 33.23,51.14a30.16,30.16 0 0 0 3.71,-0.23c0.39,0 0.78,-0.1 1.19,-0.17l0.37,-0.06l0.53,-0.1l1,-0.21a28.15,28.15 0 0 0 6.75,-2.48c0.46,-0.24 0.91,-0.49 1.37,-0.77s0.92,-0.56 1.39,-0.88l0.54,-0.37q0.78,-0.57 1.56,-1.2c0.67,-0.55 1.32,-1.15 2,-1.8l0.18,-0.18c0.3,-0.3 0.6,-0.62 0.9,-0.95a2.85,2.85 0 0 0 0.23,-0.26l0.64,-0.74l0,0c0.21,-0.25 0.41,-0.51 0.62,-0.77s0.42,-0.54 0.62,-0.82l0,-0.06l0.56,-0.8a40.12,40.12 0 0 0 3.33,-5.92c7.53,16.43 20.64,18.78 27.5,18.78c10,0 33.23,-5 33.23,-51.19c0.01,-28.82 -19.29,-62.65 -26.91,-74.82zm-10,-18.82l0,4.82a4,4 0 0 0 4,4l0,0a4,4 0 0 0 4,-4l0,-4.45a6.7,6.7 0 1 1 -8,-0.41l0,0.04zm-55,0l0,4.82a4,4 0 0 0 4,4l0,0a4,4 0 0 0 4,-4l0,-4.45a6.7,6.7 0 1 1 -8,-0.41l0,0.04zm26.46,115.75c-0.12,0.46 -0.25,0.91 -0.38,1.35s-0.28,0.92 -0.43,1.37s-0.25,0.75 -0.38,1.11a0.88,0.88 0 0 0 -0.05,0.15a38.52,38.52 0 0 1 -2.38,5.29l-0.21,0.38c-0.19,0.33 -0.38,0.66 -0.58,1l0,0c-0.2,0.32 -0.4,0.64 -0.62,0.94s-0.44,0.65 -0.67,1s-0.43,0.56 -0.65,0.83a21.2,21.2 0 0 1 -5.42,4.82c-0.29,0.18 -0.58,0.34 -0.87,0.5l-0.74,0.38c-0.32,0.16 -0.64,0.3 -1,0.44l-0.64,0.25l-0.48,0.18l-0.79,0.26l-0.31,0.09l-0.76,0.2l-1.07,0.23c-0.31,0.06 -0.62,0.11 -0.94,0.15l-0.19,0l-1,0.11l0,0l-0.95,0.07q-0.63,0 -1.26,0c-16.27,0 -25.23,-15.34 -25.23,-43.19c0,-25.9 17.72,-57.55 25.23,-69.81c0.57,0.92 1.19,2 1.86,3.09l0.5,0.84l1.64,2.85c0.37,0.64 0.74,1.31 1.12,2l1.23,2.24l1.64,3.08c0.28,0.53 0.56,1.07 0.83,1.61s0.57,1.1 0.85,1.66a0.25,0.25 0 0 0 0,0.07c0.55,1.1 1.1,2.22 1.65,3.37c0.29,0.58 0.57,1.18 0.85,1.78c0,0.09 0.08,0.18 0.13,0.27q1.05,2.23 2.08,4.57l0.51,1.18c0.47,1.09 0.94,2.21 1.4,3.34c0.8,1.94 1.57,3.92 2.29,5.92c0.21,0.57 0.41,1.13 0.61,1.7c0.29,0.83 0.58,1.67 0.86,2.51c0.2,0.62 0.4,1.24 0.59,1.86c0.37,1.15 0.72,2.31 1,3.48c0.1,0.33 0.19,0.67 0.28,1c0.22,0.77 0.42,1.55 0.61,2.32q0.44,1.72 0.81,3.45l0,0a80.3,80.3 0 0 0 -1.65,15.62a101.66,101.66 0 0 0 1.73,19.16l0,0c-0.21,1 -0.44,2 -0.69,2.89l0.04,0.04zm32.27,21.11c-12,0 -20,-8.37 -23.42,-24a91.28,91.28 0 0 1 -1.81,-19.23a74.86,74.86 0 0 1 1.81,-15.62l0,0c4.71,-21.89 17.37,-44.31 23.42,-54.18c7.52,12.25 25.23,43.88 25.23,69.81c-0.04,27.85 -9,43.18 -25.27,43.18l0.04,0.04z"/>
  <path id="svg_3" d="m156,133.43a4,4 0 0 0 -6.9,0c-0.72,1.23 -17.62,30.29 -17.62,54.39c0,31.31 13.2,36 21.07,36s21.07,-4.68 21.07,-36c-0.05,-24.1 -16.95,-53.16 -17.62,-54.39zm-3.45,82.38c-11.37,0 -13.07,-17.53 -13.07,-28c0,-15.54 8.23,-34.22 13.07,-43.87c4.84,9.64 13.07,28.31 13.07,43.87c-0.05,10.47 -1.75,28 -13.12,28l0.05,0z"/>
 </g>
</svg>